<svg width="262" height="75" viewBox="0 0 262 75" fill="none" xmlns="http://www.w3.org/2000/svg">
<path fill-rule="evenodd" clip-rule="evenodd" d="M81.2838 72.0778C88.1311 72.0778 93.6819 66.5269 93.6819 59.6796C93.6819 52.8323 88.1311 47.2815 81.2838 47.2815C74.4365 47.2815 68.8856 52.8323 68.8856 59.6796C68.8856 66.5269 74.4365 72.0778 81.2838 72.0778ZM81.2838 73.8977C89.1362 73.8977 95.5018 67.532 95.5018 59.6796C95.5018 51.8272 89.1362 45.4616 81.2838 45.4616C73.4314 45.4616 67.0657 51.8272 67.0657 59.6796C67.0657 67.532 73.4314 73.8977 81.2838 73.8977Z" fill="#131212"/>
<path fill-rule="evenodd" clip-rule="evenodd" d="M81.2838 66.618C84.9901 66.618 87.9947 63.6135 87.9947 59.9071C87.9947 56.2008 84.9901 53.1962 81.2838 53.1962C77.5774 53.1962 74.5729 56.2008 74.5729 59.9071C74.5729 63.6135 77.5774 66.618 81.2838 66.618ZM81.2838 68.2105C85.8696 68.2105 89.5871 64.4929 89.5871 59.9071C89.5871 55.3213 85.8696 51.6038 81.2838 51.6038C76.698 51.6038 72.9804 55.3213 72.9804 59.9071C72.9804 64.4929 76.698 68.2105 81.2838 68.2105Z" fill="#131212"/>
<path fill-rule="evenodd" clip-rule="evenodd" d="M81.2838 62.0683C82.4773 62.0683 83.4449 61.1007 83.4449 59.9071C83.4449 58.7136 82.4773 57.746 81.2838 57.746C80.0902 57.746 79.1226 58.7136 79.1226 59.9071C79.1226 61.1007 80.0902 62.0683 81.2838 62.0683ZM81.2838 63.4332C83.2312 63.4332 84.8098 61.8545 84.8098 59.9071C84.8098 57.9597 83.2312 56.3811 81.2838 56.3811C79.3364 56.3811 77.7577 57.9597 77.7577 59.9071C77.7577 61.8545 79.3364 63.4332 81.2838 63.4332Z" fill="#131212"/>
<path fill-rule="evenodd" clip-rule="evenodd" d="M93.6819 59.6796C93.6819 66.5269 88.1311 72.0778 81.2838 72.0778C74.4365 72.0778 68.8856 66.5269 68.8856 59.6796C68.8856 52.8323 74.4365 47.2815 81.2838 47.2815C88.1311 47.2815 93.6819 52.8323 93.6819 59.6796ZM81.2838 68.2105C85.8696 68.2105 89.5871 64.4929 89.5871 59.9071C89.5871 55.3213 85.8696 51.6038 81.2838 51.6038C76.698 51.6038 72.9804 55.3213 72.9804 59.9071C72.9804 64.4929 76.698 68.2105 81.2838 68.2105Z" fill="#231F20"/>
<path fill-rule="evenodd" clip-rule="evenodd" d="M87.9947 59.9071C87.9947 63.6135 84.9901 66.618 81.2838 66.618C77.5774 66.618 74.5729 63.6135 74.5729 59.9071C74.5729 56.2008 77.5774 53.1962 81.2838 53.1962C84.9901 53.1962 87.9947 56.2008 87.9947 59.9071ZM81.2838 63.4332C83.2312 63.4332 84.8098 61.8545 84.8098 59.9071C84.8098 57.9597 83.2312 56.3811 81.2838 56.3811C79.3364 56.3811 77.7577 57.9597 77.7577 59.9071C77.7577 61.8545 79.3364 63.4332 81.2838 63.4332Z" fill="#959292"/>
<path d="M83.4449 59.9071C83.4449 61.1007 82.4773 62.0683 81.2838 62.0683C80.0902 62.0683 79.1226 61.1007 79.1226 59.9071C79.1226 58.7136 80.0902 57.746 81.2838 57.746C82.4773 57.746 83.4449 58.7136 83.4449 59.9071Z" fill="#231F20"/>
<path fill-rule="evenodd" clip-rule="evenodd" d="M199.805 72.0778C206.653 72.0778 212.203 66.5269 212.203 59.6796C212.203 52.8323 206.653 47.2815 199.805 47.2815C192.958 47.2815 187.407 52.8323 187.407 59.6796C187.407 66.5269 192.958 72.0778 199.805 72.0778ZM199.805 73.8977C207.658 73.8977 214.023 67.532 214.023 59.6796C214.023 51.8272 207.658 45.4616 199.805 45.4616C191.953 45.4616 185.587 51.8272 185.587 59.6796C185.587 67.532 191.953 73.8977 199.805 73.8977Z" fill="#131212"/>
<path fill-rule="evenodd" clip-rule="evenodd" d="M199.805 66.618C203.512 66.618 206.516 63.6135 206.516 59.9071C206.516 56.2008 203.512 53.1962 199.805 53.1962C196.099 53.1962 193.094 56.2008 193.094 59.9071C193.094 63.6135 196.099 66.618 199.805 66.618ZM199.805 68.2105C204.391 68.2105 208.109 64.4929 208.109 59.9071C208.109 55.3213 204.391 51.6038 199.805 51.6038C195.22 51.6038 191.502 55.3213 191.502 59.9071C191.502 64.4929 195.22 68.2105 199.805 68.2105Z" fill="#131212"/>
<path fill-rule="evenodd" clip-rule="evenodd" d="M199.805 62.0683C200.999 62.0683 201.966 61.1007 201.966 59.9071C201.966 58.7136 200.999 57.746 199.805 57.746C198.612 57.746 197.644 58.7136 197.644 59.9071C197.644 61.1007 198.612 62.0683 199.805 62.0683ZM199.805 63.4332C201.753 63.4332 203.331 61.8545 203.331 59.9071C203.331 57.9597 201.753 56.3811 199.805 56.3811C197.858 56.3811 196.279 57.9597 196.279 59.9071C196.279 61.8545 197.858 63.4332 199.805 63.4332Z" fill="#131212"/>
<path fill-rule="evenodd" clip-rule="evenodd" d="M212.203 59.6796C212.203 66.5269 206.653 72.0778 199.805 72.0778C192.958 72.0778 187.407 66.5269 187.407 59.6796C187.407 52.8323 192.958 47.2815 199.805 47.2815C206.653 47.2815 212.203 52.8323 212.203 59.6796ZM199.805 68.2105C204.391 68.2105 208.109 64.4929 208.109 59.9071C208.109 55.3213 204.391 51.6038 199.805 51.6038C195.22 51.6038 191.502 55.3213 191.502 59.9071C191.502 64.4929 195.22 68.2105 199.805 68.2105Z" fill="#231F20"/>
<path fill-rule="evenodd" clip-rule="evenodd" d="M206.516 59.9071C206.516 63.6135 203.512 66.618 199.805 66.618C196.099 66.618 193.094 63.6135 193.094 59.9071C193.094 56.2008 196.099 53.1962 199.805 53.1962C203.512 53.1962 206.516 56.2008 206.516 59.9071ZM199.805 63.4332C201.753 63.4332 203.331 61.8545 203.331 59.9071C203.331 57.9597 201.753 56.3811 199.805 56.3811C197.858 56.3811 196.279 57.9597 196.279 59.9071C196.279 61.8545 197.858 63.4332 199.805 63.4332Z" fill="#959292"/>
<path d="M201.966 59.9071C201.966 61.1007 200.999 62.0683 199.805 62.0683C198.612 62.0683 197.644 61.1007 197.644 59.9071C197.644 58.7136 198.612 57.746 199.805 57.746C200.999 57.746 201.966 58.7136 201.966 59.9071Z" fill="#231F20"/>
<path fill-rule="evenodd" clip-rule="evenodd" d="M261.37 74.6306H0.440826V71.9007H261.37V74.6306Z" fill="#131212"/>
<path d="M254.688 20.8402C255.282 21.2139 255.392 21.8118 255.587 25.7387C255.757 29.1612 255.646 29.6249 254.57 30L253.903 30.2327L253.753 28.0336C253.671 26.8238 253.508 24.7593 253.392 23.4456C253.097 20.1086 253.088 20.2025 253.692 20.3829C253.974 20.4669 254.422 20.6727 254.688 20.8402Z" fill="#1D4ED8"/>
<path fill-rule="evenodd" clip-rule="evenodd" d="M252.774 31.5783C253.087 31.958 253.533 31.9368 254.765 31.4834C257.069 30.6365 257.396 29.7734 257.056 25.437C256.634 20.0544 256.074 17.8853 254.765 16.6209C251.986 13.9341 248.176 13.8911 247.457 14.2324C246.577 16.9622 247.797 18.1368 248.556 18.6673C249.677 18.6039 250.535 18.9897 251.094 19.4718C251.376 19.7152 251.576 19.9777 251.694 20.2102C251.819 20.4545 251.83 20.6135 251.822 20.6692L252.774 31.5783ZM254.034 18.9798C254.778 19.2332 254.7 18.6326 253.865 17.6813C253.118 16.8349 251.073 15.6883 248.556 15.5973L248.858 17.3035C250.352 17.2191 251.173 17.7372 251.986 18.4384C252.129 18.5621 252.261 18.6922 252.381 18.8267H253.009C253.291 18.8151 253.752 18.884 254.034 18.9798ZM255.587 25.7387C255.392 21.8118 255.282 21.2139 254.688 20.8402C254.422 20.6727 253.974 20.4669 253.692 20.3829C253.088 20.2025 253.097 20.1086 253.392 23.4456C253.508 24.7593 253.671 26.8238 253.753 28.0336L253.903 30.2327L254.57 30C255.646 29.6249 255.757 29.1612 255.587 25.7387Z" fill="#131212"/>
<path d="M253.865 17.6813C254.7 18.6326 254.778 19.2332 254.034 18.9798C253.752 18.884 253.291 18.8151 253.009 18.8267H252.381C252.261 18.6922 252.129 18.5621 251.986 18.4384C251.173 17.7372 250.352 17.2191 248.858 17.3035L248.556 15.5973C251.073 15.6883 253.118 16.8349 253.865 17.6813Z" fill="#E5E5E5"/>
<path fill-rule="evenodd" clip-rule="evenodd" d="M24.3321 0.880872C21.4512 1.63727 20.4641 2.49854 19.0703 5.47273C16.8723 10.1631 16.7396 12.135 16.8454 38.5232C16.9328 60.3214 16.8666 59.2913 18.3719 62.2732C19.3103 64.1323 19.9641 64.4785 23.7752 65.135C25.5016 65.4323 30.5639 66.2973 35.0245 67.0568L43.1351 68.4379H54.8749H66.6147L67.5492 67.7611L68.4835 67.0841L69.9746 65.8787C69.5928 65.0929 69.2965 64.2723 69.1007 63.4332C68.4082 60.4665 69.0136 56.7286 70.6162 54.0741C71.6142 52.4209 74.0037 50.1904 75.6869 49.3407C78.5758 47.8823 82.3539 47.6377 85.3261 48.7165C88.639 49.9192 90.8538 51.8035 92.3612 54.7024C94.2683 58.3703 94.3623 62.3244 92.6774 65.8787L94.154 66.8353L95.1531 67.523L96.1525 68.2104H140.704H185.256L186.08 67.5316L186.903 66.8526L188.464 65.7556C187.742 64.1852 187.385 62.4666 187.387 60.5896C187.392 57.1286 188.46 54.4758 190.875 51.9239C193.911 48.716 198.172 47.3845 202.48 48.2977C205.743 48.989 209.16 51.4839 210.801 54.3725C211.896 56.3 212.516 59.0208 212.372 61.2654C212.263 62.9506 211.849 64.5312 211.185 65.9538L212.677 67.0662L213.719 67.8619C214.293 68.2998 214.829 68.6158 214.912 68.5646C214.995 68.5132 219.513 68.3547 224.951 68.2118C242.549 67.75 247.099 67.5682 248.098 67.2875C249.283 66.9547 251.161 65.3245 251.855 64.0276C252.353 63.0965 252.355 63.033 252.344 51.035L252.333 38.9782L251.592 33.2909C250.894 27.9402 249.682 20.7477 248.934 17.5233C248.443 15.4026 248.415 15.4615 249.796 15.7111C251.542 16.0268 253.061 16.7487 253.835 17.6309C254.671 18.5822 254.749 19.1828 254.005 18.9294C253.723 18.8336 253.262 18.7647 252.98 18.7763C251.934 18.8195 251.787 19.0026 251.786 20.2602C251.786 22.6609 252.517 31.2508 252.745 31.5279C253.058 31.9076 253.503 31.8864 254.736 31.433C257.04 30.5861 257.367 29.723 257.027 25.3866C256.605 20.004 255.995 17.665 254.687 16.4006C253.68 15.426 251.62 14.525 249.734 14.2331L248.167 13.9906L247.681 12.38C247.01 10.1622 245.344 7.00964 244.126 5.65472C242.907 4.29912 240.211 2.451 238.548 1.83064C237.884 1.58313 236.368 1.1898 235.18 0.956626C233.093 0.547146 229.469 0.530995 129.511 0.487317C27.9162 0.442729 25.9732 0.450009 24.3321 0.880872ZM234.022 2.5445C236.936 3.0452 238.112 3.43011 239.754 4.41991L241.028 5.18882L240.923 6.29123C240.838 7.17048 240.955 7.71213 241.502 8.96786C242.436 11.1147 242.803 12.2555 243.841 16.2391C246.027 24.6273 247.069 31.35 247.472 39.6606C247.796 46.3504 248.102 47.7039 249.637 49.239C250.641 50.2429 250.649 50.2632 250.649 51.8372V53.4237H246.057C245.726 53.4237 245.462 53.4397 245.24 53.4788C245.081 54.3253 244.766 54.3336 244.218 54.3336C244.155 54.3336 244.091 54.3324 244.025 54.3298C243.834 54.7485 243.824 55.5297 243.824 58.0042V65.911C244.405 65.8823 244.897 65.8533 245.318 65.8235L245.303 61.0445L245.265 58.0927C245.244 56.4691 245.268 55.0732 245.319 54.9909C245.37 54.9085 245.822 54.8487 246.324 54.858L250.649 54.8748V58.0296V61.1845L250.422 62.7942C250.422 63.4612 249.257 64.7706 248.216 65.2747C247.699 65.5252 247.288 65.684 245.318 65.8235C244.897 65.8533 244.405 65.8823 243.824 65.911C240.007 66.1003 232.395 66.2818 216.346 66.6569C215.021 66.6879 214.86 66.6362 214.156 65.9538L213.396 65.2174L213.735 64.1548C214.176 62.7748 214.223 58.9132 213.819 57.291C212.54 52.152 208.495 48.0254 203.445 46.7078C201.611 46.2291 198.14 46.2289 196.298 46.7073C188.889 48.6307 184.314 56.0967 185.909 63.6607L186.22 65.1393L185.506 65.7556L184.791 66.3721L140.712 66.3812L96.6329 66.3905L95.8272 65.8787C95.0953 65.4139 95.033 65.2936 95.1504 64.5706C95.2214 64.1327 95.387 63.0269 95.5182 62.1133C96.3056 56.6324 93.1458 50.6547 88.0664 48.0165C85.7048 46.7901 83.9791 46.3715 81.2838 46.3715C77.1394 46.3715 74.2538 47.5802 71.2621 50.5694C69.2617 52.5679 68.0884 54.5973 67.4223 57.21C66.9743 58.9662 66.9671 62.2486 67.407 63.8882C67.8434 65.5142 67.8757 65.3775 66.8993 66.0411L66.0503 66.618H54.4727H42.8951L36.1558 65.4722C23.5468 63.3281 21.4759 62.9423 20.8572 62.6222C20.3931 62.3822 20.0642 61.8496 19.5384 60.4865C19.1533 59.4878 18.8382 58.3602 18.8382 57.9807V57.291H20.7004C22.2992 57.291 22.6368 57.2211 23.0891 56.7964C23.61 56.3069 23.6155 56.2468 23.6155 51.0216V45.7414L23.0547 45.374C22.648 45.1076 21.955 45.0066 20.5312 45.0066H18.5684L18.6797 28.5706C18.797 11.2523 18.8125 10.9918 19.907 8.03971C21.4969 3.75178 22.5524 2.77926 26.2059 2.23602C26.8456 2.14093 73.3331 2.07974 129.511 2.10021C226.518 2.13547 231.773 2.15777 234.022 2.5445ZM247.348 18.6179C246.1 12.592 245.137 9.89056 243.397 7.52786C242.031 5.67519 242.048 6.55148 243.445 9.97336C244.345 12.1805 246.497 20.6267 247.345 25.2799C248.368 30.8941 249.057 37.8935 249.057 42.678C249.057 44.8421 249.524 46.8677 250.224 47.7387L250.679 48.3052L250.568 43.3004C250.411 36.1587 249.441 28.7305 247.348 18.6179ZM255.558 25.6883C255.363 21.7614 255.253 21.1635 254.659 20.7898C254.393 20.6223 253.945 20.4165 253.663 20.3325C253.648 20.3278 253.632 20.3232 253.618 20.3187L253.614 20.3176L253.612 20.3171C253.466 20.2729 253.36 20.2408 253.288 20.2768C253.095 20.3733 253.147 20.959 253.338 23.1126L253.363 23.3952C253.479 24.7089 253.642 26.7734 253.724 27.9832L253.873 30.1823L254.541 29.9496C255.617 29.5745 255.728 29.1108 255.558 25.6883ZM22.0231 55.9261V51.1488V46.3715H20.3169H18.6107V51.1488V55.9261H20.3169H22.0231Z" fill="#131212"/>
<path fill-rule="evenodd" clip-rule="evenodd" d="M27.4719 6.16361C26.0457 7.12475 25.9839 7.39728 25.4727 14.9781L25.005 21.9165L25.5671 23.0885C25.8765 23.733 26.4084 24.4476 26.7491 24.6764C27.0901 24.905 29.8771 26.118 32.9425 27.3717L38.516 29.6511L133.436 29.7091L228.355 29.7669V36.5759C228.355 43.648 228.429 44.2912 229.335 45.1242C231.608 47.2146 235.33 50.245 237.37 51.6654C239.606 53.2228 242.207 54.2598 244.025 54.3298C244.102 54.1632 244.206 54.054 244.351 53.9182C244.604 53.6805 244.86 53.5459 245.24 53.4788C245.453 52.3396 245.385 49.6821 245.22 43.4833C244.9 31.4246 244.693 29.3099 243.007 20.8928C240.743 9.59596 238.822 6.72983 232.944 5.87971C231.987 5.74117 193.886 5.65836 129.829 5.65563L28.2326 5.65108L27.4719 6.16361ZM67.7483 28.41V17.713V7.01601H48.197H28.6457L28.0324 7.54333L27.4193 8.07088L26.9559 14.7661C26.7011 18.4487 26.5596 21.727 26.6418 22.0514C26.9361 23.2143 27.8393 23.7335 33.5554 26.0245L39.1984 28.2862L53.4734 28.3481L67.7483 28.41ZM108.469 28.3999V17.708V7.01601H88.791H69.1132V17.708V28.3999H88.791H108.469ZM148.962 28.3999V17.708V7.01601H129.398H109.834L109.818 8.21033C109.809 8.86731 109.784 13.6785 109.761 18.9021L109.72 28.3995L129.341 28.3997L148.962 28.3999ZM189.227 28.3999V17.708V7.01601H169.777H150.327V17.708V28.3999H169.777H189.227ZM228.355 28.3999V17.708V7.01601H209.474H190.592V17.708V28.3999H209.474H228.355ZM240.274 15.4331C238.768 9.93469 236.902 7.86454 233.01 7.36976C232.389 7.29105 231.446 7.17275 230.914 7.10723L229.948 6.98803V12.4619V17.9355H235.407C238.41 17.9355 240.867 17.8586 240.867 17.7648C240.867 17.6711 240.6 16.6217 240.274 15.4331ZM243.824 46.5422C243.824 36.0886 243.377 30.4241 241.984 23.2246L241.269 19.5279H235.608H229.948V31.6856C229.948 43.275 229.967 43.8573 230.37 44.1406C230.603 44.3041 231.498 45.0658 232.361 45.8331C237.088 50.0391 241.296 52.7194 243.199 52.7358L243.824 52.7412L243.824 46.5422Z" fill="#131212"/>
<path d="M244.218 54.3336C244.766 54.3336 245.081 54.3253 245.24 53.4788C244.86 53.5459 244.604 53.6805 244.351 53.9182C244.206 54.054 244.102 54.1632 244.025 54.3298C244.091 54.3324 244.155 54.3336 244.218 54.3336Z" fill="#131212"/>
<path d="M22.0231 51.1488V55.9261H20.3169H18.6107V51.1488V46.3715H20.3169H22.0231V51.1488Z" fill="#F42F34"/>
<path d="M239.754 4.41991C238.112 3.43011 236.936 3.0452 234.022 2.5445C231.773 2.15777 226.518 2.13547 129.511 2.10021C73.3331 2.07974 26.8456 2.14093 26.2059 2.23602C22.5524 2.77926 21.4969 3.75178 19.907 8.03971C18.8125 10.9918 18.797 11.2523 18.6797 28.5706L18.5684 45.0066H20.5312C21.955 45.0066 22.648 45.1076 23.0547 45.374L23.6155 45.7414V51.0216C23.6155 56.2468 23.61 56.3069 23.0891 56.7964C22.6368 57.2211 22.2992 57.291 20.7004 57.291H18.8382V57.9807C18.8382 58.3602 19.1533 59.4878 19.5384 60.4865C20.0642 61.8496 20.3931 62.3822 20.8572 62.6222C21.4759 62.9423 23.5468 63.3281 36.1558 65.4722L42.8951 66.618H54.4727H66.0503L66.8993 66.0411C67.8757 65.3775 67.8434 65.5142 67.407 63.8882C66.9671 62.2486 66.9743 58.9662 67.4223 57.21C68.0884 54.5973 69.2617 52.5679 71.2621 50.5694C74.2538 47.5802 77.1394 46.3715 81.2838 46.3715C83.9791 46.3715 85.7048 46.7901 88.0664 48.0165C93.1458 50.6547 96.3056 56.6324 95.5182 62.1133C95.387 63.0269 95.2214 64.1327 95.1504 64.5706C95.033 65.2936 95.0953 65.4139 95.8272 65.8787L96.6329 66.3905L140.712 66.3812L184.791 66.3721L185.506 65.7556L186.22 65.1393L185.909 63.6607C184.314 56.0967 188.889 48.6307 196.298 46.7073C198.14 46.2289 201.611 46.2291 203.445 46.7078C208.495 48.0254 212.54 52.152 213.819 57.291C214.223 58.9132 214.176 62.7748 213.735 64.1548L213.396 65.2174L214.156 65.9538C214.86 66.6362 215.021 66.6879 216.346 66.6569C232.395 66.2818 240.007 66.1003 243.824 65.911V58.0042C243.824 55.5297 243.834 54.7485 244.025 54.3298C242.207 54.2598 239.606 53.2228 237.37 51.6654C235.33 50.245 231.608 47.2146 229.335 45.1242C228.429 44.2912 228.355 43.648 228.355 36.5759V29.7669L133.436 29.7091L38.516 29.6511L32.9425 27.3717C29.8771 26.118 27.0901 24.905 26.7491 24.6764C26.4084 24.4476 25.8765 23.733 25.5671 23.0885L25.005 21.9165L25.4727 14.9781C25.9839 7.39728 26.0457 7.12475 27.4719 6.16361L28.2326 5.65108L129.829 5.65563C193.886 5.65836 231.987 5.74117 232.944 5.87971C238.822 6.72983 240.743 9.59596 243.007 20.8928C244.693 29.3099 244.9 31.4246 245.22 43.4833C245.385 49.6821 245.453 52.3396 245.24 53.4788C245.462 53.4397 245.726 53.4237 246.057 53.4237H250.649V51.8372C250.649 50.2632 250.641 50.2429 249.637 49.239C248.102 47.7039 247.796 46.3504 247.472 39.6606C247.069 31.35 246.027 24.6273 243.841 16.2391C242.803 12.2555 242.436 11.1147 241.502 8.96786C240.955 7.71213 240.838 7.17048 240.923 6.29123L241.028 5.18882L239.754 4.41991Z" fill="#E5E5E5"/>
<path d="M67.7483 17.713V28.41L53.4734 28.3481L39.1984 28.2862L33.5554 26.0245C27.8393 23.7335 26.9361 23.2143 26.6418 22.0514C26.5596 21.727 26.7011 18.4487 26.9559 14.7661L27.4193 8.07088L28.0324 7.54333L28.6457 7.01601H48.197H67.7483V17.713Z" fill="#231F20"/>
<path d="M108.469 17.708V28.3999H88.791H69.1132V17.708V7.01601H88.791H108.469V17.708Z" fill="#231F20"/>
<path d="M148.962 17.708V28.3999L129.341 28.3997L109.72 28.3995L109.761 18.9021C109.784 13.6785 109.809 8.86731 109.818 8.21033L109.834 7.01601H129.398H148.962V17.708Z" fill="#231F20"/>
<path d="M189.227 17.708V28.3999H169.777H150.327V17.708V7.01601H169.777H189.227V17.708Z" fill="#231F20"/>
<path d="M228.355 17.708V28.3999H209.474H190.592V17.708V7.01601H209.474H228.355V17.708Z" fill="#231F20"/>
<path d="M233.01 7.36976C236.902 7.86454 238.768 9.93469 240.274 15.4331C240.6 16.6217 240.867 17.6711 240.867 17.7648C240.867 17.8586 238.41 17.9355 235.407 17.9355H229.948V12.4619V6.98803L230.914 7.10723C231.446 7.17275 232.389 7.29105 233.01 7.36976Z" fill="#231F20"/>
<path d="M241.984 23.2246C243.377 30.4241 243.824 36.0886 243.824 46.5422L243.824 52.7412L243.199 52.7358C241.296 52.7194 237.088 50.0391 232.361 45.8331C231.498 45.0658 230.603 44.3041 230.37 44.1406C229.967 43.8573 229.948 43.275 229.948 31.6856V19.5279H235.608H241.269L241.984 23.2246Z" fill="#231F20"/>
<path d="M243.397 7.52786C245.137 9.89056 246.1 12.592 247.348 18.6179C249.441 28.7305 250.411 36.1587 250.568 43.3004L250.679 48.3052L250.224 47.7387C249.524 46.8677 249.057 44.8421 249.057 42.678C249.057 37.8935 248.368 30.8941 247.345 25.2799C246.497 20.6267 244.345 12.1805 243.445 9.97336C242.048 6.55148 242.031 5.67519 243.397 7.52786Z" fill="#231F20"/>
<path d="M248.216 65.2747C249.257 64.7706 250.422 63.4612 250.422 62.7942L250.649 61.1845V58.0296V54.8748L246.324 54.858C245.822 54.8487 245.37 54.9085 245.319 54.9909C245.268 55.0732 245.244 56.4691 245.265 58.0927L245.303 61.0445L245.318 65.8235C247.288 65.684 247.699 65.5252 248.216 65.2747Z" fill="#1D4ED8"/>
<g clip-path="url(#clip0_879_21)">
<path fill-rule="evenodd" clip-rule="evenodd" d="M213.318 19.2688C212.228 19.2688 211.257 19.7813 210.633 20.5781H210.049C209.133 20.5781 208.387 21.3236 208.387 22.2403V23.2425C208.387 24.1592 209.133 24.9052 210.049 24.9052H210.741C211.366 25.6272 212.289 26.0841 213.318 26.0841C214.347 26.0841 215.27 25.6272 215.895 24.9052H216.561C217.478 24.9052 218.224 24.1592 218.224 23.2425V22.2403C218.224 21.3236 217.478 20.5781 216.561 20.5781H216.002C215.378 19.7813 214.408 19.2688 213.318 19.2688ZM213.532 23.2425V22.2405C213.532 21.5003 214.135 20.898 214.875 20.898H216.561C217.301 20.898 217.904 21.5003 217.904 22.2405V23.2425C217.904 23.9826 217.301 24.585 216.561 24.585H212.849C213.263 24.2824 213.532 23.7933 213.532 23.2425ZM212.081 21.7472C212.081 21.9166 212.217 22.0221 212.4 22.0221C212.591 22.0221 212.724 21.9166 212.724 21.7472C212.724 21.5891 212.591 21.478 212.4 21.478C212.217 21.478 212.081 21.5891 212.081 21.7472ZM212.121 22.1904V23.7624H212.678V22.1904H212.121ZM209.688 21.5984L210.304 23.7624H211.043L211.659 21.5984H210.929L210.65 23.2813L210.425 21.5984H209.688ZM214.884 22.1084V22.5921H216.036V23.0997H214.884V23.7624H214.288V21.5984H216.158V22.1084H214.884ZM216.465 21.7472C216.465 21.9166 216.601 22.0221 216.783 22.0221C216.975 22.0221 217.107 21.9166 217.107 21.7472C217.107 21.5891 216.975 21.478 216.783 21.478C216.601 21.478 216.465 21.5891 216.465 21.7472ZM216.505 22.1904V23.7624H217.061V22.1904H216.505Z" fill="#E5E5E5"/>
</g>
<defs>
<clipPath id="clip0_879_21">
<rect width="12.4168" height="7.35288" fill="white" transform="translate(207.311 19)"/>
</clipPath>
</defs>
</svg>
