<svg width="52" height="77" viewBox="0 0 52 77" fill="none" xmlns="http://www.w3.org/2000/svg">
<g clip-path="url(#clip0_812_488)">
<path d="M27.764 12.4977C17.014 12.4 7.44477 27.8898 4.0039 35.647C0.2902 30.4674 0.949873 25.0191 1.74392 22.9424C2.37915 20.3526 2.66016 15.5517 2.72125 13.475C3.69853 11.0807 8.91068 8.12033 11.3946 6.93945C14.2287 3.12807 16.2403 2.58242 16.8918 2.78602C18.8463 2.44398 21.9003 3.58006 23.183 4.19086C23.7022 2.70531 24.6953 1.49113 30.5 0.709308C37.7559 -0.267969 47.676 3.4579 50.2414 11.4594C52.2936 17.8605 47.5131 22.7998 44.8663 24.4694C43.6447 20.5195 38.514 12.5954 27.764 12.4977Z" fill="#fff"/>
<path d="M4.5 39L3 37L11.7247 29.8526C15.5665 27.2118 25.4537 27.6597 29.5294 28.3849C30.8431 27.3335 33.1054 27.3096 34.6309 27.4096C39.9725 25.189 46.776 26.5535 49.3768 26.9286L49.1853 30.7106C49.1069 38.9845 43.9337 38.9632 39.1323 38.588C35.2911 38.2879 34.0021 34.1175 33.9021 31.9669C32.8674 31.3371 31.2497 31.8117 31.0231 32.2368C28.6177 41.5396 22.7773 41.1388 17.3006 41.2888C12.9193 41.4089 11.3238 37.5377 11.0737 35.5871C8.19286 36.3674 5.49088 38.1875 4.5 39Z" fill="#fff"/>
<path d="M25.3351 56.3884C23.3558 55.1651 21.9666 52.8859 21.4498 49.1077C22.1684 48.6855 23.164 48.3363 24.3881 48.0559C25.7568 47.7424 27.3729 47.5233 29.1318 47.3729C32.4947 47.0854 36.3384 47.0526 39.8972 47.0778C39.8836 48.6531 39.5839 50.8428 38.7288 52.7971C37.7861 54.9514 36.2018 56.7566 33.6313 57.2316C30.1955 57.8664 27.3883 57.6573 25.3351 56.3884Z" fill="#fff" stroke="#fff"/>
<path d="M23.2109 53.3151C23.6339 54.6855 25.5659 57.3552 29.9105 57.071C29.5553 55.413 27.718 52.3406 23.2109 53.3151Z" fill="##131E59"/>
<path d="M21.1387 47.3765C21.1813 47.9436 20.8877 49.2404 19.3725 49.8913" stroke="#fff"/>
<path d="M22.4402 51.5903L21.9905 49.3421C27.4396 47.1668 38.4352 47.128 39.7563 47.4388C37.3862 53.0337 27.1933 52.2968 22.4402 51.5903Z" fill="##131E59"/>
<path d="M2.9364 66.1248C4.23409 62.9031 7.30377 61.4776 8.67639 61.1676L27.0194 72.7723C24.6235 72.2732 21.6121 75.2263 20.4059 76.7653L2.9364 66.1248Z" fill="#fff"/>
<path d="M45.2375 70.9572C43.9398 67.7355 40.8702 66.31 39.4975 66L26.645 72.7723C29.0408 72.2732 32.0522 75.2263 33.2584 76.7653L45.2375 70.9572Z" fill="#fff"/>
</g>
<defs>
<clipPath id="clip0_812_488">
<rect width="51" height="77" fill="white" transform="translate(0.5)"/>
</clipPath>
</defs>
</svg>
