<svg width="36" height="36" viewBox="0 0 36 36" fill="none" xmlns="http://www.w3.org/2000/svg">
<path d="M13.5 24V17.25H11.25V15H15.75V24H13.5ZM18.75 24C18.325 24 17.9688 23.8563 17.6813 23.5688C17.3938 23.2812 17.25 22.925 17.25 22.5V16.5C17.25 16.075 17.3938 15.7188 17.6813 15.4313C17.9688 15.1438 18.325 15 18.75 15H21.75C22.175 15 22.5312 15.1438 22.8188 15.4313C23.1063 15.7188 23.25 16.075 23.25 16.5V22.5C23.25 22.925 23.1063 23.2812 22.8188 23.5688C22.5312 23.8563 22.175 24 21.75 24H18.75ZM19.5 21.75H21V17.25H19.5V21.75ZM18 33C16.125 33 14.3688 32.6438 12.7313 31.9313C11.0938 31.2188 9.66875 30.2563 8.45625 29.0438C7.24375 27.8313 6.28125 26.4063 5.56875 24.7688C4.85625 23.1313 4.5 21.375 4.5 19.5C4.5 17.625 4.85625 15.8688 5.56875 14.2313C6.28125 12.5938 7.24375 11.1688 8.45625 9.95625C9.66875 8.74375 11.0938 7.78125 12.7313 7.06875C14.3688 6.35625 16.125 6 18 6H18.225L15.9 3.675L18 1.5L24 7.5L18 13.5L15.9 11.325L18.225 9H18C15.075 9 12.5938 10.0188 10.5563 12.0563C8.51875 14.0938 7.5 16.575 7.5 19.5C7.5 22.425 8.51875 24.9063 10.5563 26.9438C12.5938 28.9813 15.075 30 18 30C20.925 30 23.4062 28.9813 25.4438 26.9438C27.4813 24.9063 28.5 22.425 28.5 19.5H31.5C31.5 21.375 31.1438 23.1313 30.4313 24.7688C29.7188 26.4063 28.7563 27.8313 27.5438 29.0438C26.3313 30.2563 24.9062 31.2188 23.2688 31.9313C21.6313 32.6438 19.875 33 18 33Z" fill="#6A6A6A"/>
</svg>
