<svg width="36" height="36" viewBox="0 0 36 36" fill="none" xmlns="http://www.w3.org/2000/svg">
<path d="M18 33C19.875 33 21.6312 32.6438 23.2687 31.9313C24.9062 31.2188 26.3312 30.2563 27.5437 29.0438C28.7562 27.8313 29.7188 26.4062 30.4312 24.7687C31.1437 23.1313 31.5 21.375 31.5 19.5C31.5 17.625 31.1437 15.8688 30.4312 14.2313C29.7188 12.5938 28.7562 11.1688 27.5437 9.95625C26.3312 8.74375 24.9062 7.78125 23.2687 7.06875C21.6312 6.35625 19.875 6 18 6H17.775L20.1 3.675L18 1.5L12 7.5L18 13.5L20.1 11.325L17.775 9H18C20.925 9 23.4062 10.0188 25.4438 12.0562C27.4813 14.0938 28.5 16.575 28.5 19.5C28.5 22.425 27.4813 24.9062 25.4438 26.9437C23.4062 28.9812 20.925 30 18 30C15.075 30 12.5938 28.9812 10.5562 26.9437C8.51875 24.9062 7.5 22.425 7.5 19.5H4.5C4.5 21.375 4.85625 23.1313 5.56875 24.7687C6.28125 26.4062 7.24375 27.8313 8.45625 29.0438C9.66875 30.2563 11.0938 31.2188 12.7313 31.9313C14.3687 32.6438 16.125 33 18 33Z" fill="#6A6A6A"/>
<path d="M14.25 21.75V24H19.5C19.925 24 20.2813 23.8563 20.5688 23.5688C20.8563 23.2813 21 22.925 21 22.5V20.25C21 19.825 20.8563 19.4688 20.5688 19.1813C20.2813 18.8938 19.925 18.75 19.5 18.75H16.5V17.25H21V15H14.25V20.25H18.75V21.75H14.25Z" fill="#6A6A6A"/>
</svg>
