<svg width="36" height="36" viewBox="0 0 36 36" fill="none" xmlns="http://www.w3.org/2000/svg">
<path d="M18 22.5C19.25 22.5 20.3125 22.0625 21.1875 21.1875C22.0625 20.3125 22.5 19.25 22.5 18C22.5 16.75 22.0625 15.6875 21.1875 14.8125C20.3125 13.9375 19.25 13.5 18 13.5C16.75 13.5 15.6875 13.9375 14.8125 14.8125C13.9375 15.6875 13.5 16.75 13.5 18C13.5 19.25 13.9375 20.3125 14.8125 21.1875C15.6875 22.0625 16.75 22.5 18 22.5ZM18 25.5C15.925 25.5 14.1563 24.7688 12.6938 23.3063C11.2313 21.8438 10.5 20.075 10.5 18C10.5 15.925 11.2313 14.1563 12.6938 12.6938C14.1563 11.2313 15.925 10.5 18 10.5C20.075 10.5 21.8438 11.2313 23.3063 12.6938C24.7688 14.1563 25.5 15.925 25.5 18C25.5 20.075 24.7688 21.8438 23.3063 23.3063C21.8438 24.7688 20.075 25.5 18 25.5ZM3 19.5C2.575 19.5 2.21875 19.3563 1.93125 19.0688C1.64375 18.7812 1.5 18.425 1.5 18C1.5 17.575 1.64375 17.2188 1.93125 16.9313C2.21875 16.6438 2.575 16.5 3 16.5H6C6.425 16.5 6.78125 16.6438 7.06875 16.9313C7.35625 17.2188 7.5 17.575 7.5 18C7.5 18.425 7.35625 18.7812 7.06875 19.0688C6.78125 19.3563 6.425 19.5 6 19.5H3ZM30 19.5C29.575 19.5 29.2188 19.3563 28.9313 19.0688C28.6438 18.7812 28.5 18.425 28.5 18C28.5 17.575 28.6438 17.2188 28.9313 16.9313C29.2188 16.6438 29.575 16.5 30 16.5H33C33.425 16.5 33.7812 16.6438 34.0688 16.9313C34.3563 17.2188 34.5 17.575 34.5 18C34.5 18.425 34.3563 18.7812 34.0688 19.0688C33.7812 19.3563 33.425 19.5 33 19.5H30ZM18 7.5C17.575 7.5 17.2188 7.35625 16.9313 7.06875C16.6438 6.78125 16.5 6.425 16.5 6V3C16.5 2.575 16.6438 2.21875 16.9313 1.93125C17.2188 1.64375 17.575 1.5 18 1.5C18.425 1.5 18.7812 1.64375 19.0688 1.93125C19.3563 2.21875 19.5 2.575 19.5 3V6C19.5 6.425 19.3563 6.78125 19.0688 7.06875C18.7812 7.35625 18.425 7.5 18 7.5ZM18 34.5C17.575 34.5 17.2188 34.3563 16.9313 34.0688C16.6438 33.7812 16.5 33.425 16.5 33V30C16.5 29.575 16.6438 29.2188 16.9313 28.9313C17.2188 28.6438 17.575 28.5 18 28.5C18.425 28.5 18.7812 28.6438 19.0688 28.9313C19.3563 29.2188 19.5 29.575 19.5 30V33C19.5 33.425 19.3563 33.7812 19.0688 34.0688C18.7812 34.3563 18.425 34.5 18 34.5ZM8.475 10.575L6.8625 9C6.5625 8.725 6.41875 8.375 6.43125 7.95C6.44375 7.525 6.5875 7.1625 6.8625 6.8625C7.1625 6.5625 7.525 6.4125 7.95 6.4125C8.375 6.4125 8.725 6.5625 9 6.8625L10.575 8.475C10.85 8.775 10.9875 9.125 10.9875 9.525C10.9875 9.925 10.85 10.275 10.575 10.575C10.3 10.875 9.95625 11.0188 9.54375 11.0063C9.13125 10.9938 8.775 10.85 8.475 10.575ZM27 29.1375L25.425 27.525C25.15 27.225 25.0125 26.8688 25.0125 26.4563C25.0125 26.0438 25.15 25.7 25.425 25.425C25.7 25.125 26.0438 24.9813 26.4563 24.9938C26.8688 25.0063 27.225 25.15 27.525 25.425L29.1375 27C29.4375 27.275 29.5813 27.625 29.5688 28.05C29.5563 28.475 29.4125 28.8375 29.1375 29.1375C28.8375 29.4375 28.475 29.5875 28.05 29.5875C27.625 29.5875 27.275 29.4375 27 29.1375ZM25.425 10.575C25.125 10.3 24.9813 9.95625 24.9938 9.54375C25.0063 9.13125 25.15 8.775 25.425 8.475L27 6.8625C27.275 6.5625 27.625 6.41875 28.05 6.43125C28.475 6.44375 28.8375 6.5875 29.1375 6.8625C29.4375 7.1625 29.5875 7.525 29.5875 7.95C29.5875 8.375 29.4375 8.725 29.1375 9L27.525 10.575C27.225 10.85 26.875 10.9875 26.475 10.9875C26.075 10.9875 25.725 10.85 25.425 10.575ZM6.8625 29.1375C6.5625 28.8375 6.4125 28.475 6.4125 28.05C6.4125 27.625 6.5625 27.275 6.8625 27L8.475 25.425C8.775 25.15 9.13125 25.0125 9.54375 25.0125C9.95625 25.0125 10.3 25.15 10.575 25.425C10.875 25.7 11.0188 26.0438 11.0063 26.4563C10.9938 26.8688 10.85 27.225 10.575 27.525L9 29.1375C8.725 29.4375 8.375 29.5813 7.95 29.5688C7.525 29.5563 7.1625 29.4125 6.8625 29.1375Z" fill="#7E818D"/>
</svg>
